<svg role="img" aria-hidden="true" focusable="false" xmlns="http://www.w3.org/2000/svg" viewBox="0 0 48 48"><path fill="#534786" d="M20.22 36.6c-.31 0-.62-.1-.88-.28-.45-.32-.68-.86-.61-1.41l.67-5.22c.21-1.64.83-3.21 1.79-4.55L35.05 5.86l2.61-3.64C38.44 1.13 39.6.41 40.93.19c1.32-.22 2.65.1 3.74.88 2.25 1.62 2.76 4.76 1.15 7.01L29.34 31c-.96 1.34-2.26 2.43-3.74 3.15l-4.74 2.3c-.21.1-.43.15-.65.15ZM36.61 8.83 23.63 26.89c-.67.94-1.1 2.03-1.25 3.18l-.32 2.47 2.24-1.09c1.04-.5 1.94-1.26 2.61-2.2l12.98-18.06-3.29-2.36Zm1.75-2.44 3.29 2.36 1.74-2.42c.65-.91.44-2.17-.46-2.83-.44-.32-.98-.44-1.51-.35-.53.09-1 .38-1.32.82l-1.74 2.42ZM32.06 47.88H2.73c-.83 0-1.5-.67-1.5-1.5s.67-1.5 1.5-1.5h29.33c.83 0 1.5.67 1.5 1.5s-.67 1.5-1.5 1.5Zm3.17-5.64H2.73c-.83 0-1.5-.67-1.5-1.5s.67-1.5 1.5-1.5h32.5c.83 0 1.5.67 1.5 1.5s-.67 1.5-1.5 1.5ZM15.78 36.6H2.73c-.83 0-1.5-.67-1.5-1.5s.67-1.5 1.5-1.5h13.05c.83 0 1.5.67 1.5 1.5s-.67 1.5-1.5 1.5Z"/></svg>